<svg xmlns="http://www.w3.org/2000/svg" viewBox="0 0 1200 476" role="img" aria-label="Seven ML tables plus the tag bridge feed the real-time report notebook, which publishes KQL functions that drive the live dashboard alongside the PiEvents stream.">
<defs><marker id="arw-gray" markerWidth="9" markerHeight="9" refX="7.5" refY="3" orient="auto" markerUnits="userSpaceOnUse"><path d="M0,0 L7.5,3 L0,6 z" fill="#6e7681"/></marker><marker id="arw-blue" markerWidth="9" markerHeight="9" refX="7.5" refY="3" orient="auto" markerUnits="userSpaceOnUse"><path d="M0,0 L7.5,3 L0,6 z" fill="#58a6ff"/></marker><marker id="arw-green" markerWidth="9" markerHeight="9" refX="7.5" refY="3" orient="auto" markerUnits="userSpaceOnUse"><path d="M0,0 L7.5,3 L0,6 z" fill="#3fb950"/></marker><marker id="arw-purple" markerWidth="9" markerHeight="9" refX="7.5" refY="3" orient="auto" markerUnits="userSpaceOnUse"><path d="M0,0 L7.5,3 L0,6 z" fill="#bc8cff"/></marker><marker id="arw-teal" markerWidth="9" markerHeight="9" refX="7.5" refY="3" orient="auto" markerUnits="userSpaceOnUse"><path d="M0,0 L7.5,3 L0,6 z" fill="#39d2c0"/></marker><marker id="arw-orange" markerWidth="9" markerHeight="9" refX="7.5" refY="3" orient="auto" markerUnits="userSpaceOnUse"><path d="M0,0 L7.5,3 L0,6 z" fill="#d29922"/></marker><marker id="arw-gold" markerWidth="9" markerHeight="9" refX="7.5" refY="3" orient="auto" markerUnits="userSpaceOnUse"><path d="M0,0 L7.5,3 L0,6 z" fill="#e3b341"/></marker><marker id="arw-red" markerWidth="9" markerHeight="9" refX="7.5" refY="3" orient="auto" markerUnits="userSpaceOnUse"><path d="M0,0 L7.5,3 L0,6 z" fill="#f85149"/></marker><marker id="arw-silver" markerWidth="9" markerHeight="9" refX="7.5" refY="3" orient="auto" markerUnits="userSpaceOnUse"><path d="M0,0 L7.5,3 L0,6 z" fill="#aeb6c2"/></marker></defs>
<rect x="0" y="0" width="1200" height="476" rx="12" fill="#0d1117"/>
<path d="M250,54.0 H330 V225.0 H360" fill="none" stroke="#6e7681" stroke-width="1.7" marker-end="url(#arw-gray)"/>
<path d="M250,104.0 H330 V225.0 H360" fill="none" stroke="#6e7681" stroke-width="1.7" marker-end="url(#arw-gray)"/>
<path d="M250,154.0 H330 V225.0 H360" fill="none" stroke="#6e7681" stroke-width="1.7" marker-end="url(#arw-gray)"/>
<path d="M250,204.0 H330 V225.0 H360" fill="none" stroke="#6e7681" stroke-width="1.7" marker-end="url(#arw-gray)"/>
<path d="M250,254.0 H330 V225.0 H360" fill="none" stroke="#6e7681" stroke-width="1.7" marker-end="url(#arw-gray)"/>
<path d="M250,304.0 H330 V225.0 H360" fill="none" stroke="#6e7681" stroke-width="1.7" marker-end="url(#arw-gray)"/>
<path d="M250,354.0 H330 V225.0 H360" fill="none" stroke="#6e7681" stroke-width="1.7" marker-end="url(#arw-gray)"/>
<path d="M250,404.0 H330 V225.0 H360" fill="none" stroke="#6e7681" stroke-width="1.7" marker-end="url(#arw-gray)"/>
<path d="M560,225.0 H620 V148.0 H650" fill="none" stroke="#6e7681" stroke-width="1.7" marker-end="url(#arw-gray)"/>
<path d="M560,225.0 H620 V248.0 H650" fill="none" stroke="#6e7681" stroke-width="1.7" marker-end="url(#arw-gray)"/>
<path d="M850,148.0 H920 V225.0 H950" fill="none" stroke="#6e7681" stroke-width="1.7" marker-end="url(#arw-gray)"/>
<path d="M850,248.0 H920 V225.0 H950" fill="none" stroke="#6e7681" stroke-width="1.7" marker-end="url(#arw-gray)"/>
<path d="M850,378.0 H920 V225.0 H950" fill="none" stroke="#3fb950" stroke-width="1.7" marker-end="url(#arw-green)"/>
<rect x="30" y="34" width="220" height="40" rx="10" fill="#161b22" stroke="#58a6ff" stroke-width="1.6"/>
<rect x="30" y="34" width="4" height="40" rx="2" fill="#58a6ff"/>
<text x="140.0" y="58.5" text-anchor="middle" font-family="-apple-system,'Segoe UI',Helvetica,Arial,sans-serif" font-size="12.5" font-weight="700" fill="#e6edf3">ml.watchlist</text>
<rect x="30" y="84" width="220" height="40" rx="10" fill="#161b22" stroke="#58a6ff" stroke-width="1.6"/>
<rect x="30" y="84" width="4" height="40" rx="2" fill="#58a6ff"/>
<text x="140.0" y="108.5" text-anchor="middle" font-family="-apple-system,'Segoe UI',Helvetica,Arial,sans-serif" font-size="12.5" font-weight="700" fill="#e6edf3">ml.drivers_longterm</text>
<rect x="30" y="134" width="220" height="40" rx="10" fill="#161b22" stroke="#58a6ff" stroke-width="1.6"/>
<rect x="30" y="134" width="4" height="40" rx="2" fill="#58a6ff"/>
<text x="140.0" y="158.5" text-anchor="middle" font-family="-apple-system,'Segoe UI',Helvetica,Arial,sans-serif" font-size="12.5" font-weight="700" fill="#e6edf3">ml.drivers_shortterm</text>
<rect x="30" y="184" width="220" height="40" rx="10" fill="#161b22" stroke="#58a6ff" stroke-width="1.6"/>
<rect x="30" y="184" width="4" height="40" rx="2" fill="#58a6ff"/>
<text x="140.0" y="208.5" text-anchor="middle" font-family="-apple-system,'Segoe UI',Helvetica,Arial,sans-serif" font-size="12.5" font-weight="700" fill="#e6edf3">ml.anomaly_advisories</text>
<rect x="30" y="234" width="220" height="40" rx="10" fill="#161b22" stroke="#58a6ff" stroke-width="1.6"/>
<rect x="30" y="234" width="4" height="40" rx="2" fill="#58a6ff"/>
<text x="140.0" y="258.5" text-anchor="middle" font-family="-apple-system,'Segoe UI',Helvetica,Arial,sans-serif" font-size="12.5" font-weight="700" fill="#e6edf3">ml.aakr_episodes</text>
<rect x="30" y="284" width="220" height="40" rx="10" fill="#161b22" stroke="#58a6ff" stroke-width="1.6"/>
<rect x="30" y="284" width="4" height="40" rx="2" fill="#58a6ff"/>
<text x="140.0" y="308.5" text-anchor="middle" font-family="-apple-system,'Segoe UI',Helvetica,Arial,sans-serif" font-size="12.5" font-weight="700" fill="#e6edf3">ml.predictions_longterm</text>
<rect x="30" y="334" width="220" height="40" rx="10" fill="#161b22" stroke="#58a6ff" stroke-width="1.6"/>
<rect x="30" y="334" width="4" height="40" rx="2" fill="#58a6ff"/>
<text x="140.0" y="358.5" text-anchor="middle" font-family="-apple-system,'Segoe UI',Helvetica,Arial,sans-serif" font-size="12.5" font-weight="700" fill="#e6edf3">ml.predictions_shortterm</text>
<rect x="30" y="384" width="220" height="40" rx="10" fill="#161b22" stroke="#e3b341" stroke-width="1.6"/>
<rect x="30" y="384" width="4" height="40" rx="2" fill="#e3b341"/>
<text x="140.0" y="408.5" text-anchor="middle" font-family="-apple-system,'Segoe UI',Helvetica,Arial,sans-serif" font-size="12.5" font-weight="700" fill="#e6edf3">gold.bridge_pi_tag_to_asset</text>
<rect x="360" y="190" width="200" height="70" rx="10" fill="#161b22" stroke="#bc8cff" stroke-width="1.6"/>
<rect x="360" y="190" width="4" height="70" rx="2" fill="#bc8cff"/>
<text x="460.0" y="222.0" text-anchor="middle" font-family="-apple-system,'Segoe UI',Helvetica,Arial,sans-serif" font-size="12.5" font-weight="700" fill="#e6edf3">RealTime-Report</text>
<text x="460.0" y="238.0" text-anchor="middle" font-family="-apple-system,'Segoe UI',Helvetica,Arial,sans-serif" font-size="10" fill="#8b949e">notebook</text>
<rect x="650" y="120" width="200" height="56" rx="10" fill="#161b22" stroke="#39d2c0" stroke-width="1.6"/>
<rect x="650" y="120" width="4" height="56" rx="2" fill="#39d2c0"/>
<text x="750.0" y="145.0" text-anchor="middle" font-family="-apple-system,'Segoe UI',Helvetica,Arial,sans-serif" font-size="12.5" font-weight="700" fill="#e6edf3">WatchTags()</text>
<text x="750.0" y="161.0" text-anchor="middle" font-family="-apple-system,'Segoe UI',Helvetica,Arial,sans-serif" font-size="10" fill="#8b949e">KQL function</text>
<rect x="650" y="220" width="200" height="56" rx="10" fill="#161b22" stroke="#39d2c0" stroke-width="1.6"/>
<rect x="650" y="220" width="4" height="56" rx="2" fill="#39d2c0"/>
<text x="750.0" y="245.0" text-anchor="middle" font-family="-apple-system,'Segoe UI',Helvetica,Arial,sans-serif" font-size="12.5" font-weight="700" fill="#e6edf3">WatchAssets()</text>
<text x="750.0" y="261.0" text-anchor="middle" font-family="-apple-system,'Segoe UI',Helvetica,Arial,sans-serif" font-size="10" fill="#8b949e">KQL function</text>
<rect x="650" y="350" width="200" height="56" rx="10" fill="#161b22" stroke="#3fb950" stroke-width="1.6"/>
<rect x="650" y="350" width="4" height="56" rx="2" fill="#3fb950"/>
<text x="750.0" y="375.0" text-anchor="middle" font-family="-apple-system,'Segoe UI',Helvetica,Arial,sans-serif" font-size="12.5" font-weight="700" fill="#e6edf3">PiEvents</text>
<text x="750.0" y="391.0" text-anchor="middle" font-family="-apple-system,'Segoe UI',Helvetica,Arial,sans-serif" font-size="10" fill="#8b949e">live stream</text>
<rect x="950" y="190" width="210" height="70" rx="10" fill="#161b22" stroke="#3fb950" stroke-width="1.6"/>
<rect x="950" y="190" width="4" height="70" rx="2" fill="#3fb950"/>
<text x="1055.0" y="222.0" text-anchor="middle" font-family="-apple-system,'Segoe UI',Helvetica,Arial,sans-serif" font-size="12.5" font-weight="700" fill="#e6edf3">Critical-Tag-Monitor</text>
<text x="1055.0" y="238.0" text-anchor="middle" font-family="-apple-system,'Segoe UI',Helvetica,Arial,sans-serif" font-size="10" fill="#8b949e">dashboard</text>
</svg>