<svg xmlns="http://www.w3.org/2000/svg" viewBox="0 0 620 916" role="img" aria-label="A nine-step pipeline that loads mapping tables, extracts and matches identifiers across PI, GADS, and condition-monitoring, then builds the unified equipment dimension and bridge tables.">
<defs><marker id="arw-gray" markerWidth="9" markerHeight="9" refX="7.5" refY="3" orient="auto" markerUnits="userSpaceOnUse"><path d="M0,0 L7.5,3 L0,6 z" fill="#6e7681"/></marker><marker id="arw-blue" markerWidth="9" markerHeight="9" refX="7.5" refY="3" orient="auto" markerUnits="userSpaceOnUse"><path d="M0,0 L7.5,3 L0,6 z" fill="#58a6ff"/></marker><marker id="arw-green" markerWidth="9" markerHeight="9" refX="7.5" refY="3" orient="auto" markerUnits="userSpaceOnUse"><path d="M0,0 L7.5,3 L0,6 z" fill="#3fb950"/></marker><marker id="arw-purple" markerWidth="9" markerHeight="9" refX="7.5" refY="3" orient="auto" markerUnits="userSpaceOnUse"><path d="M0,0 L7.5,3 L0,6 z" fill="#bc8cff"/></marker><marker id="arw-teal" markerWidth="9" markerHeight="9" refX="7.5" refY="3" orient="auto" markerUnits="userSpaceOnUse"><path d="M0,0 L7.5,3 L0,6 z" fill="#39d2c0"/></marker><marker id="arw-orange" markerWidth="9" markerHeight="9" refX="7.5" refY="3" orient="auto" markerUnits="userSpaceOnUse"><path d="M0,0 L7.5,3 L0,6 z" fill="#d29922"/></marker><marker id="arw-gold" markerWidth="9" markerHeight="9" refX="7.5" refY="3" orient="auto" markerUnits="userSpaceOnUse"><path d="M0,0 L7.5,3 L0,6 z" fill="#e3b341"/></marker><marker id="arw-red" markerWidth="9" markerHeight="9" refX="7.5" refY="3" orient="auto" markerUnits="userSpaceOnUse"><path d="M0,0 L7.5,3 L0,6 z" fill="#f85149"/></marker><marker id="arw-silver" markerWidth="9" markerHeight="9" refX="7.5" refY="3" orient="auto" markerUnits="userSpaceOnUse"><path d="M0,0 L7.5,3 L0,6 z" fill="#aeb6c2"/></marker></defs>
<rect x="0" y="0" width="620" height="916" rx="12" fill="#0d1117"/>
<path d="M165.0,90 V120 H310.0 V150" fill="none" stroke="#6e7681" stroke-width="1.7" marker-end="url(#arw-gray)"/>
<path d="M445.0,90 V120 H310.0 V150" fill="none" stroke="#6e7681" stroke-width="1.7" marker-end="url(#arw-gray)"/>
<path d="M310.0,206 V215.0 H310.0 V224" fill="none" stroke="#6e7681" stroke-width="1.7" marker-end="url(#arw-gray)"/>
<path d="M310.0,280 V289.0 H310.0 V298" fill="none" stroke="#6e7681" stroke-width="1.7" marker-end="url(#arw-gray)"/>
<path d="M310.0,354 V363.0 H310.0 V372" fill="none" stroke="#6e7681" stroke-width="1.7" marker-end="url(#arw-gray)"/>
<path d="M310.0,428 V437.0 H310.0 V446" fill="none" stroke="#6e7681" stroke-width="1.7" marker-end="url(#arw-gray)"/>
<path d="M310.0,502 V511.0 H310.0 V520" fill="none" stroke="#6e7681" stroke-width="1.7" marker-end="url(#arw-gray)"/>
<path d="M310.0,576 V585.0 H310.0 V594" fill="none" stroke="#6e7681" stroke-width="1.7" marker-end="url(#arw-gray)"/>
<path d="M310.0,650 V659.0 H310.0 V668" fill="none" stroke="#6e7681" stroke-width="1.7" marker-end="url(#arw-gray)"/>
<path d="M310.0,724 V733.0 H310.0 V742" fill="none" stroke="#6e7681" stroke-width="1.7" marker-end="url(#arw-gray)"/>
<rect x="40" y="34" width="250" height="56" rx="10" fill="#161b22" stroke="#39d2c0" stroke-width="1.6"/>
<rect x="40" y="34" width="4" height="56" rx="2" fill="#39d2c0"/>
<text x="165.0" y="59.0" text-anchor="middle" font-family="-apple-system,'Segoe UI',Helvetica,Arial,sans-serif" font-size="12.5" font-weight="700" fill="#e6edf3">unit_mapping.csv</text>
<text x="165.0" y="75.0" text-anchor="middle" font-family="-apple-system,'Segoe UI',Helvetica,Arial,sans-serif" font-size="10" fill="#8b949e">manual cross-ref</text>
<rect x="320" y="34" width="250" height="56" rx="10" fill="#161b22" stroke="#39d2c0" stroke-width="1.6"/>
<rect x="320" y="34" width="4" height="56" rx="2" fill="#39d2c0"/>
<text x="445.0" y="59.0" text-anchor="middle" font-family="-apple-system,'Segoe UI',Helvetica,Arial,sans-serif" font-size="12.5" font-weight="700" fill="#e6edf3">acronym_dictionary.csv</text>
<text x="445.0" y="75.0" text-anchor="middle" font-family="-apple-system,'Segoe UI',Helvetica,Arial,sans-serif" font-size="10" fill="#8b949e">abbreviation lookup</text>
<rect x="80" y="150" width="460" height="56" rx="10" fill="#161b22" stroke="#58a6ff" stroke-width="1.6"/>
<rect x="80" y="150" width="4" height="56" rx="2" fill="#58a6ff"/>
<text x="310.0" y="182.5" text-anchor="middle" font-family="-apple-system,'Segoe UI',Helvetica,Arial,sans-serif" font-size="12.5" font-weight="700" fill="#e6edf3">1 · Load mapping tables</text>
<rect x="80" y="224" width="460" height="56" rx="10" fill="#161b22" stroke="#8b949e" stroke-width="1.6"/>
<rect x="80" y="224" width="4" height="56" rx="2" fill="#8b949e"/>
<text x="310.0" y="249.0" text-anchor="middle" font-family="-apple-system,'Segoe UI',Helvetica,Arial,sans-serif" font-size="12.5" font-weight="700" fill="#e6edf3">2 · PI tag prefix extraction</text>
<text x="310.0" y="265.0" text-anchor="middle" font-family="-apple-system,'Segoe UI',Helvetica,Arial,sans-serif" font-size="10" fill="#8b949e">regex: RV2:BFPU2BPA.AG -&gt; BFP</text>
<rect x="80" y="298" width="460" height="56" rx="10" fill="#161b22" stroke="#8b949e" stroke-width="1.6"/>
<rect x="80" y="298" width="4" height="56" rx="2" fill="#8b949e"/>
<text x="310.0" y="323.0" text-anchor="middle" font-family="-apple-system,'Segoe UI',Helvetica,Arial,sans-serif" font-size="12.5" font-weight="700" fill="#e6edf3">3 · GADS unit filtering</text>
<text x="310.0" y="339.0" text-anchor="middle" font-family="-apple-system,'Segoe UI',Helvetica,Arial,sans-serif" font-size="10" fill="#8b949e">UNIT_ID 86 -&gt; RV2, 87 -&gt; RV3</text>
<rect x="80" y="372" width="460" height="56" rx="10" fill="#161b22" stroke="#8b949e" stroke-width="1.6"/>
<rect x="80" y="372" width="4" height="56" rx="2" fill="#8b949e"/>
<text x="310.0" y="397.0" text-anchor="middle" font-family="-apple-system,'Segoe UI',Helvetica,Arial,sans-serif" font-size="12.5" font-weight="700" fill="#e6edf3">4 · CM hierarchy walk</text>
<text x="310.0" y="413.0" text-anchor="middle" font-family="-apple-system,'Segoe UI',Helvetica,Arial,sans-serif" font-size="10" fill="#8b949e">BFS from plant root</text>
<rect x="80" y="446" width="460" height="56" rx="10" fill="#161b22" stroke="#8b949e" stroke-width="1.6"/>
<rect x="80" y="446" width="4" height="56" rx="2" fill="#8b949e"/>
<text x="310.0" y="471.0" text-anchor="middle" font-family="-apple-system,'Segoe UI',Helvetica,Arial,sans-serif" font-size="12.5" font-weight="700" fill="#e6edf3">5 · Descriptor comparison</text>
<text x="310.0" y="487.0" text-anchor="middle" font-family="-apple-system,'Segoe UI',Helvetica,Arial,sans-serif" font-size="10" fill="#8b949e">side-by-side</text>
<rect x="80" y="520" width="460" height="56" rx="10" fill="#161b22" stroke="#58a6ff" stroke-width="1.6"/>
<rect x="80" y="520" width="4" height="56" rx="2" fill="#58a6ff"/>
<text x="310.0" y="545.0" text-anchor="middle" font-family="-apple-system,'Segoe UI',Helvetica,Arial,sans-serif" font-size="12.5" font-weight="700" fill="#e6edf3">6 · Fuzzy keyword matching</text>
<text x="310.0" y="561.0" text-anchor="middle" font-family="-apple-system,'Segoe UI',Helvetica,Arial,sans-serif" font-size="10" fill="#8b949e">Jaccard scoring + confidence</text>
<rect x="80" y="594" width="460" height="56" rx="10" fill="#161b22" stroke="#8b949e" stroke-width="1.6"/>
<rect x="80" y="594" width="4" height="56" rx="2" fill="#8b949e"/>
<text x="310.0" y="619.0" text-anchor="middle" font-family="-apple-system,'Segoe UI',Helvetica,Arial,sans-serif" font-size="12.5" font-weight="700" fill="#e6edf3">7 · GADS cause-text mining</text>
<text x="310.0" y="635.0" text-anchor="middle" font-family="-apple-system,'Segoe UI',Helvetica,Arial,sans-serif" font-size="10" fill="#8b949e">NLP from narratives</text>
<rect x="80" y="668" width="460" height="56" rx="10" fill="#161b22" stroke="#3fb950" stroke-width="1.6"/>
<rect x="80" y="668" width="4" height="56" rx="2" fill="#3fb950"/>
<text x="310.0" y="693.0" text-anchor="middle" font-family="-apple-system,'Segoe UI',Helvetica,Arial,sans-serif" font-size="12.5" font-weight="700" fill="#e6edf3">8 · Unified dim_equipment</text>
<text x="310.0" y="709.0" text-anchor="middle" font-family="-apple-system,'Segoe UI',Helvetica,Arial,sans-serif" font-size="10" fill="#8b949e">hierarchical dimension</text>
<rect x="80" y="742" width="460" height="56" rx="10" fill="#161b22" stroke="#bc8cff" stroke-width="1.6"/>
<rect x="80" y="742" width="4" height="56" rx="2" fill="#bc8cff"/>
<text x="310.0" y="767.0" text-anchor="middle" font-family="-apple-system,'Segoe UI',Helvetica,Arial,sans-serif" font-size="12.5" font-weight="700" fill="#e6edf3">9 · Bridge tables</text>
<text x="310.0" y="783.0" text-anchor="middle" font-family="-apple-system,'Segoe UI',Helvetica,Arial,sans-serif" font-size="10" fill="#8b949e">PI -&gt; equipment, GADS -&gt; equipment</text>
</svg>