<svg xmlns="http://www.w3.org/2000/svg" viewBox="0 0 1200 420" role="img" aria-label="The forwarder splits into hot-path and poll-path readers that buffer to a durable SQLite queue, drained to Eventstream by a publisher, with a health heartbeat.">
<defs><marker id="arw-gray" markerWidth="9" markerHeight="9" refX="7.5" refY="3" orient="auto" markerUnits="userSpaceOnUse"><path d="M0,0 L7.5,3 L0,6 z" fill="#6e7681"/></marker><marker id="arw-blue" markerWidth="9" markerHeight="9" refX="7.5" refY="3" orient="auto" markerUnits="userSpaceOnUse"><path d="M0,0 L7.5,3 L0,6 z" fill="#58a6ff"/></marker><marker id="arw-green" markerWidth="9" markerHeight="9" refX="7.5" refY="3" orient="auto" markerUnits="userSpaceOnUse"><path d="M0,0 L7.5,3 L0,6 z" fill="#3fb950"/></marker><marker id="arw-purple" markerWidth="9" markerHeight="9" refX="7.5" refY="3" orient="auto" markerUnits="userSpaceOnUse"><path d="M0,0 L7.5,3 L0,6 z" fill="#bc8cff"/></marker><marker id="arw-teal" markerWidth="9" markerHeight="9" refX="7.5" refY="3" orient="auto" markerUnits="userSpaceOnUse"><path d="M0,0 L7.5,3 L0,6 z" fill="#39d2c0"/></marker><marker id="arw-orange" markerWidth="9" markerHeight="9" refX="7.5" refY="3" orient="auto" markerUnits="userSpaceOnUse"><path d="M0,0 L7.5,3 L0,6 z" fill="#d29922"/></marker><marker id="arw-gold" markerWidth="9" markerHeight="9" refX="7.5" refY="3" orient="auto" markerUnits="userSpaceOnUse"><path d="M0,0 L7.5,3 L0,6 z" fill="#e3b341"/></marker><marker id="arw-red" markerWidth="9" markerHeight="9" refX="7.5" refY="3" orient="auto" markerUnits="userSpaceOnUse"><path d="M0,0 L7.5,3 L0,6 z" fill="#f85149"/></marker><marker id="arw-silver" markerWidth="9" markerHeight="9" refX="7.5" refY="3" orient="auto" markerUnits="userSpaceOnUse"><path d="M0,0 L7.5,3 L0,6 z" fill="#aeb6c2"/></marker></defs>
<rect x="0" y="0" width="1200" height="420" rx="12" fill="#0d1117"/>
<path d="M194,190.0 H232 V108.0 H270" fill="none" stroke="#6e7681" stroke-width="1.7" marker-end="url(#arw-gray)"/>
<path d="M194,190.0 H232 V268.0 H270" fill="none" stroke="#6e7681" stroke-width="1.7" marker-end="url(#arw-gray)"/>
<path d="M460,108.0 H500 V190.0 H540" fill="none" stroke="#6e7681" stroke-width="1.7" marker-end="url(#arw-gray)"/>
<path d="M460,268.0 H500 V190.0 H540" fill="none" stroke="#6e7681" stroke-width="1.7" marker-end="url(#arw-gray)"/>
<path d="M730,190.0 H765.0 V190.0 H800" fill="none" stroke="#6e7681" stroke-width="1.7" marker-end="url(#arw-gray)"/>
<path d="M990,190.0 H1015.0 V190.0 H1040" fill="none" stroke="#6e7681" stroke-width="1.7" marker-end="url(#arw-gray)"/>
<path d="M730,348.0 H1010 V190.0 H1040" fill="none" stroke="#6e7681" stroke-width="1.7" marker-end="url(#arw-gray)"/>
<rect x="24" y="160" width="170" height="60" rx="10" fill="#161b22" stroke="#39d2c0" stroke-width="1.6"/>
<rect x="24" y="160" width="4" height="60" rx="2" fill="#39d2c0"/>
<text x="109.0" y="187.0" text-anchor="middle" font-family="-apple-system,'Segoe UI',Helvetica,Arial,sans-serif" font-size="12.5" font-weight="700" fill="#e6edf3">PI Web API</text>
<text x="109.0" y="203.0" text-anchor="middle" font-family="-apple-system,'Segoe UI',Helvetica,Arial,sans-serif" font-size="10" fill="#8b949e">WebSocket + REST</text>
<rect x="270" y="80" width="190" height="56" rx="10" fill="#161b22" stroke="#58a6ff" stroke-width="1.6"/>
<rect x="270" y="80" width="4" height="56" rx="2" fill="#58a6ff"/>
<text x="365.0" y="105.0" text-anchor="middle" font-family="-apple-system,'Segoe UI',Helvetica,Arial,sans-serif" font-size="12.5" font-weight="700" fill="#e6edf3">HotPathLoop</text>
<text x="365.0" y="121.0" text-anchor="middle" font-family="-apple-system,'Segoe UI',Helvetica,Arial,sans-serif" font-size="10" fill="#8b949e">WebSocket push</text>
<rect x="270" y="240" width="190" height="56" rx="10" fill="#161b22" stroke="#58a6ff" stroke-width="1.6"/>
<rect x="270" y="240" width="4" height="56" rx="2" fill="#58a6ff"/>
<text x="365.0" y="265.0" text-anchor="middle" font-family="-apple-system,'Segoe UI',Helvetica,Arial,sans-serif" font-size="12.5" font-weight="700" fill="#e6edf3">PollPathLoop</text>
<text x="365.0" y="281.0" text-anchor="middle" font-family="-apple-system,'Segoe UI',Helvetica,Arial,sans-serif" font-size="10" fill="#8b949e">REST snapshot</text>
<rect x="540" y="160" width="190" height="60" rx="10" fill="#161b22" stroke="#d29922" stroke-width="1.6"/>
<rect x="540" y="160" width="4" height="60" rx="2" fill="#d29922"/>
<text x="635.0" y="187.0" text-anchor="middle" font-family="-apple-system,'Segoe UI',Helvetica,Arial,sans-serif" font-size="12.5" font-weight="700" fill="#e6edf3">SQLite WAL Queue</text>
<text x="635.0" y="203.0" text-anchor="middle" font-family="-apple-system,'Segoe UI',Helvetica,Arial,sans-serif" font-size="10" fill="#8b949e">durable outbox</text>
<rect x="800" y="160" width="190" height="60" rx="10" fill="#161b22" stroke="#bc8cff" stroke-width="1.6"/>
<rect x="800" y="160" width="4" height="60" rx="2" fill="#bc8cff"/>
<text x="895.0" y="187.0" text-anchor="middle" font-family="-apple-system,'Segoe UI',Helvetica,Arial,sans-serif" font-size="12.5" font-weight="700" fill="#e6edf3">PublisherLoop</text>
<text x="895.0" y="203.0" text-anchor="middle" font-family="-apple-system,'Segoe UI',Helvetica,Arial,sans-serif" font-size="10" fill="#8b949e">AMQP batch drain</text>
<rect x="540" y="320" width="190" height="56" rx="10" fill="#161b22" stroke="#aeb6c2" stroke-width="1.6"/>
<rect x="540" y="320" width="4" height="56" rx="2" fill="#aeb6c2"/>
<text x="635.0" y="345.0" text-anchor="middle" font-family="-apple-system,'Segoe UI',Helvetica,Arial,sans-serif" font-size="12.5" font-weight="700" fill="#e6edf3">HealthLoop</text>
<text x="635.0" y="361.0" text-anchor="middle" font-family="-apple-system,'Segoe UI',Helvetica,Arial,sans-serif" font-size="10" fill="#8b949e">heartbeat + metrics</text>
<rect x="1040" y="160" width="140" height="60" rx="10" fill="#161b22" stroke="#3fb950" stroke-width="1.6"/>
<rect x="1040" y="160" width="4" height="60" rx="2" fill="#3fb950"/>
<text x="1110.0" y="187.0" text-anchor="middle" font-family="-apple-system,'Segoe UI',Helvetica,Arial,sans-serif" font-size="12.5" font-weight="700" fill="#e6edf3">Eventstream</text>
<text x="1110.0" y="203.0" text-anchor="middle" font-family="-apple-system,'Segoe UI',Helvetica,Arial,sans-serif" font-size="10" fill="#8b949e">custom endpoint</text>
<rect x="193.65" y="89" width="72.7" height="16" rx="8" fill="#0d1117" opacity="0.92"/>
<text x="230" y="101" text-anchor="middle" font-family="-apple-system,'Segoe UI',Helvetica,Arial,sans-serif" font-size="9.5" font-style="italic" fill="#8b949e">wss:// push</text>
<rect x="199.35" y="257" width="61.300000000000004" height="16" rx="8" fill="#0d1117" opacity="0.92"/>
<text x="230" y="269" text-anchor="middle" font-family="-apple-system,'Segoe UI',Helvetica,Arial,sans-serif" font-size="9.5" font-style="italic" fill="#8b949e">GET value</text>
<rect x="987.2" y="139" width="55.6" height="16" rx="8" fill="#0d1117" opacity="0.92"/>
<text x="1015" y="151" text-anchor="middle" font-family="-apple-system,'Segoe UI',Helvetica,Arial,sans-serif" font-size="9.5" font-style="italic" fill="#8b949e">AMQP 1.0</text>
<rect x="869.35" y="311" width="61.300000000000004" height="16" rx="8" fill="#0d1117" opacity="0.92"/>
<text x="900" y="323" text-anchor="middle" font-family="-apple-system,'Segoe UI',Helvetica,Arial,sans-serif" font-size="9.5" font-style="italic" fill="#8b949e">heartbeat</text>
</svg>